<svg aria-hidden="true" style="position:absolute;width:0;height:0" xmlns="http://www.w3.org/2000/svg" overflow="hidden"><defs><symbol id="icon-antenna1" viewBox="0 0 32 32"><path d="M30.773 22.098l-8.443-8.505.937-4.615c.242.094.499.144.758.146h.006a2.159 2.159 0 10-2.008-1.435l-4.96.605L8.972.161a.534.534 0 00-.377-.16.532.532 0 00-.373.155L6.709 1.66a.534.534 0 000 .754l.814.826a14.943 14.943 0 002.519 17.663.513.513 0 00.146.098c-.034.18-.051.364-.052.547v6.187h-6.4a2.67 2.67 0 00-2.667 2.667v1.067c0 .295.239.533.533.533h24.533a.533.533 0 00.533-.533v-1.067a2.67 2.67 0 00-2.667-2.667h-6.4v-2.742a15.09 15.09 0 003.049.32 14.854 14.854 0 007.04-1.783l.818.823a.534.534 0 00.377.16.532.532 0 00.373-.155l1.513-1.504a.534.534 0 000-.754zM23.28 6.233a1.066 1.066 0 11.752 1.822h-.003a1.067 1.067 0 01-.747-1.823h-.002zm-1.256 3.505l-.598 2.946-1.175-1.182 1.774-1.763zm-.605-.902l-1.92 1.909-1.485-1.493 3.405-.415zM24.004 28.8a1.6 1.6 0 011.6 1.6v.533H2.137V30.4a1.6 1.6 0 011.6-1.6h20.267zm-7.467-2.133v1.067h-5.333v-1.067h5.333zM11.204 25.6v-4.053c0-1.294 1.196-2.347 2.667-2.347s2.667 1.053 2.667 2.347V25.6h-5.333zm6.4-1.696v-2.357c0-1.882-1.675-3.413-3.733-3.413a3.8 3.8 0 00-3.281 1.786A13.87 13.87 0 018.311 4.033l18.602 18.708a13.818 13.818 0 01-9.309 1.163zm11.289-.684L7.836 2.039l.755-.752 7.935 7.98c.004 0 .006.007.01.01l13.115 13.191-.757.752z"/></symbol><symbol id="icon-clock1" viewBox="0 0 32 32"><path fill="var(--color1, #212121)" d="M31.297 15.301C31.295 6.849 24.442-.002 15.989 0S.686 6.855.688 15.308a15.304 15.304 0 0010.649 14.576.662.662 0 00.529-.065.637.637 0 00.283-.356l3.865-12.25a1.912 1.912 0 10-.84-3.635l-5.106-5.107a.637.637 0 00-.902.902l5.103 5.109a1.876 1.876 0 00.536 2.309l-3.683 11.673C3.844 25.783.118 17.71 2.799 10.432S13.553-.572 20.831 2.109s11.004 10.754 8.323 18.032a14.042 14.042 0 01-7.462 7.973l-.398-1.874a.638.638 0 00-1.048-.344l-3.837 3.426a.637.637 0 00.231 1.084l4.899 1.563a.638.638 0 00.819-.74l-.391-1.839a15.255 15.255 0 009.329-14.089zm-15.305-.637a.638.638 0 110 1.277.638.638 0 010-1.277zm2.101 14.864l2.184-1.948.603 2.84-2.787-.892z"/><path fill="var(--color2, #2196f3)" d="M15.354 3.185V4.46a.638.638 0 101.276 0V3.185a.638.638 0 00-1.276 0zM3.876 14.664a.638.638 0 000 1.276h1.275a.638.638 0 100-1.276H3.876zM28.108 15.939a.638.638 0 100-1.276h-1.275a.638.638 0 000 1.276h1.275z"/></symbol><symbol id="icon-diagram1" viewBox="0 0 32 32"><path fill="var(--color2, #2196f3)" d="M14.926 14.965h1.066v4.798h-1.066v-4.797zM19.19 17.097h1.066v2.665H19.19v-2.665zM10.661 18.696h1.066v1.066h-1.066v-1.066zM7.463 18.163h1.066v1.599H7.463v-1.599z"/><path fill="var(--color1, #212121)" d="M1.599 28.291h25.587a1.6 1.6 0 001.599-1.599V24.56a1.6 1.6 0 00-1.599-1.599h-.533V9.668L29.681 6.8a1.608 1.608 0 10-.746-.763L26.654 8.2V6.97a1.6 1.6 0 00-1.599-1.599H3.733A1.6 1.6 0 002.134 6.97v15.992h-.533a1.6 1.6 0 00-1.599 1.599v2.132a1.6 1.6 0 001.599 1.599zM30.384 4.837a.533.533 0 110 1.067.533.533 0 010-1.067zM3.198 6.969c0-.294.239-.533.533-.533h21.322c.294 0 .533.239.533.533v2.239l-1.066 1.013V8.035a.533.533 0 00-.533-.533H4.797a.533.533 0 00-.533.533v13.326c0 .294.239.533.533.533h19.19a.533.533 0 00.533-.533v-9.674l1.066-1.01v12.284H3.198V6.969zm4.798 6.93a1.598 1.598 0 101.107 2.749l1.853.93a.532.532 0 00.636-.123l3.939-4.431 3.872 2.901a.533.533 0 00.686-.039l3.365-3.188v8.131H5.33V8.569h18.124v2.66l-3.771 3.572-3.904-2.927a.533.533 0 00-.718.072l-3.993 4.493-1.493-.746c.011-.064.018-.129.02-.193a1.6 1.6 0 00-1.599-1.599zm.533 1.599a.533.533 0 11-1.067 0 .533.533 0 011.067 0zm3.198 8.528h5.331v.533a.533.533 0 01-.533.533h-4.264a.533.533 0 01-.533-.533v-.533zm-10.661.534c0-.294.239-.533.533-.533h9.062v.533a1.6 1.6 0 001.599 1.599h4.264a1.6 1.6 0 001.599-1.599v-.533h9.062c.294 0 .533.239.533.533v2.132a.533.533 0 01-.533.533H1.598a.533.533 0 01-.533-.533V24.56z"/></symbol><symbol id="icon-astronaut1" viewBox="0 0 32 32"><path fill="var(--color2, #2196f3)" d="M31.974 4.524a.534.534 0 00-.43-.363l-1.91-.278-.855-1.731c-.179-.365-.777-.365-.956 0l-.855 1.731-1.91.278a.535.535 0 00-.296.91l1.383 1.348-.326 1.903c-.034.2.048.402.212.522a.53.53 0 00.562.04l1.709-.899 1.709.899a.536.536 0 00.775-.563l-.326-1.903 1.383-1.348a.536.536 0 00.135-.547zm-2.463 1.327a.534.534 0 00-.153.472l.191 1.114-1-.526a.533.533 0 00-.498 0l-1.001.526.191-1.114a.534.534 0 00-.153-.472l-.81-.789 1.119-.163a.532.532 0 00.402-.292l.5-1.013.5 1.013a.535.535 0 00.402.292l1.119.163-.809.789zM26.133 20.522h-1.067v1.067h1.067v-1.067zM26.133 22.656h-1.067v1.067h1.067v-1.067zM27.2 21.589h-1.067v1.067H27.2v-1.067zM25.067 21.589H24v1.067h1.067v-1.067zM22.4 26.389h-1.067v1.067H22.4v-1.067zM22.4 28.522h-1.067v1.067H22.4v-1.067zM23.467 27.456H22.4v1.067h1.067v-1.067zM21.333 27.456h-1.067v1.067h1.067v-1.067zM16 24.256h-1.067v1.067H16v-1.067zM16 26.389h-1.067v1.067H16v-1.067zM17.067 25.322H16v1.067h1.067v-1.067zM14.933 25.322h-1.067v1.067h1.067v-1.067zM5.866 6.122H4.799v1.067h1.067V6.122zM5.866 8.255H4.799v1.067h1.067V8.255z"/><path fill="var(--color2, #2196f3)" d="M6.933 7.189H5.866v1.067h1.067V7.189zM4.8 7.189H3.733v1.067H4.8V7.189z"/><path fill="var(--color1, #212121)" d="M24.715 14.159a1.775 1.775 0 00-1.188-.705 1.778 1.778 0 00-1.34.352l-1.252.96-1.898 1.417-1.358-.541c2.421-1.086 4.114-3.508 4.114-6.32 0-3.823-3.123-6.933-6.961-6.933s-6.961 3.11-6.961 6.933a6.86 6.86 0 001.12 3.758l-2.764-.024h-.005c-.009 0-.015.004-.023.005a.515.515 0 00-.155.031l-.038.013c-.006.003-.013.003-.019.006l-3.233 1.596-.001.001-1.893.911a.397.397 0 00-.063.035 1.779 1.779 0 00-.598 2.295c.22.429.595.745 1.056.889a1.776 1.776 0 001.378-.128l1.388-.738 2.264-1.169 1.357-.008L2.2 22.211l-.002.001-1.339 1.333c-.316.315-.49.732-.49 1.178s.174.863.49 1.179c.325.323.752.485 1.179.485s.854-.162 1.18-.485l1.314-1.309 1.741-1.3.901.897-1.762 1.754-.002.001-1.339 1.333c-.316.315-.49.732-.49 1.178s.174.863.49 1.179c.325.323.753.485 1.18.485s.855-.162 1.18-.485l3.482-3.467.001-.002 1.01-1-.004-.004c.006-.006.015-.009.022-.015l5.166-5.658 3.471.494a.52.52 0 00.262-.033c.018-.006.033-.015.05-.023.019-.01.039-.015.058-.027l3.213-2.133c.012-.008.018-.021.029-.029.013-.01.029-.014.041-.026l1.271-1.191c.662-.62.753-1.635.212-2.362zM2.13 17.77a.714.714 0 01-.558.052.717.717 0 01-.213-1.26l1.314-.632.449 1.313-.992.527zm3.498-1.828l-1.548.8-.439-1.283 2.027-1.001-.04 1.484zm15.099-6.62a5.79 5.79 0 01-.599 2.559l-4.181-1.899a1.863 1.863 0 00-.788-1.388l1.464-4.86c2.378.756 4.105 2.974 4.105 5.588zm-11.789 0c0-3.235 2.644-5.867 5.894-5.867.253 0 .5.021.745.052l-1.432 4.754c-.019-.001-.037-.006-.057-.006-1.033 0-1.873.837-1.873 1.867s.84 1.867 1.873 1.867c.694 0 1.294-.383 1.618-.945l3.862 1.755a5.894 5.894 0 01-4.737 2.39c-3.25 0-5.894-2.632-5.894-5.867zm5.956.8c0 .441-.362.8-.806.8s-.806-.359-.806-.8c0-.441.362-.8.806-.8s.806.359.806.8zM2.465 25.146a.608.608 0 01-.854.001.592.592 0 010-.844l.962-.959.851.848-.959.955zm3.214 3.734a.608.608 0 01-.855.001.592.592 0 010-.844l.963-.959.852.848-.96.955zm3.481-3.469l-.002.001-1.765 1.76-.852-.848 1.763-1.755.002-.001c.04-.04.065-.088.09-.135.007-.014.02-.026.026-.04.017-.041.019-.085.026-.129.003-.025.014-.047.014-.073 0-.036-.013-.07-.02-.106-.006-.032-.006-.065-.019-.095a.55.55 0 00-.091-.138c-.01-.012-.014-.027-.025-.038h-.001l-.001-.002-1.607-1.6c-.017-.017-.039-.024-.058-.038a.507.507 0 00-.087-.058.515.515 0 00-.093-.033.507.507 0 00-.103-.02.5.5 0 00-.095.005.53.53 0 00-.104.02.477.477 0 00-.094.045c-.02.011-.042.015-.061.029L4.23 23.486l-.901-.897 2.399-2.386 4.361 4.289-.928.919zm6.819-7.017c-.015-.002-.03.004-.045.003a.556.556 0 00-.3.075.492.492 0 00-.083.061c-.013.011-.028.017-.04.029l-4.698 5.146-4.328-4.257 2.833-2.818a.534.534 0 00-.379-.911v-.001l-2.219.013.028-1.607 3.104.027a6.947 6.947 0 004.981 2.101c.437 0 .864-.045 1.279-.123.04.032.079.065.13.085l2.41.96.152.758.178.885-3.003-.427zm4.041.178l-.313-1.558 1.446-1.08.947 1.257-2.08 1.381zm3.754-2.831l-.838.785-.931-1.236.831-.637a.735.735 0 01.543-.143.718.718 0 01.48.284.713.713 0 01-.085.947z"/><path fill="var(--color1, #212121)" d="M13.602 18.544l-2.143-2.133a.534.534 0 00-.753 0l-2.142 2.133a.537.537 0 000 .756l2.142 2.133a.536.536 0 00.753 0l2.143-2.133a.535.535 0 000-.756zm-2.519 1.759l-1.387-1.381 1.387-1.381 1.387 1.381-1.387 1.381zM17.164 5.071l-.258 1.036c.071.018 1.738.452 1.738 2.149h1.067c0-2.017-1.666-2.965-2.547-3.185zM19.711 9.322h-1.067v1.067h1.067V9.322z"/></symbol><symbol id="icon-Client1" viewBox="0 0 32 32"><path fill="var(--color3, #afb1b8)" d="M5.44 0l4.677 4.428h13.046v12.351l4.677 4.428V.001H5.44z"/><path fill="var(--color3, #afb1b8)" d="M1.6 4.241v20.6h21.76v-8.188L10.255 4.247 1.6 4.242zm17.615 17.587H5.043V7.974h1.002V20.89h13.17v.938zM7.866 28.662l.523-1.078h.438l-.762 1.438v.837h-.397v-.837l-.764-1.438h.439l.523 1.078zm2.247.667h-.881l-.184.53h-.411l.859-2.275h.355l.861 2.275H10.3l-.186-.53zm-.77-.319h.659l-.33-.944-.33.944zm2.328.234c0-.105.029-.202.086-.289.057-.089.17-.193.339-.314-.088-.111-.151-.206-.186-.284s-.052-.154-.052-.227c0-.178.054-.319.162-.422s.254-.156.438-.156a.57.57 0 01.406.147.47.47 0 01.159.361.5.5 0 01-.072.262.879.879 0 01-.236.238l-.155.113.439.519a.9.9 0 00.095-.417h.33c0 .28-.066.51-.197.689l.334.395h-.441l-.128-.152c-.162.122-.356.183-.581.183s-.405-.059-.541-.178a.599.599 0 01-.202-.467zm.753.343a.58.58 0 00.359-.128l-.497-.586-.048.034c-.125.095-.188.203-.188.325 0 .105.034.191.102.256s.158.098.272.098zm-.209-1.466c0 .087.054.197.161.33l.173-.119.048-.039a.28.28 0 00.097-.22.2.2 0 00-.067-.152.236.236 0 00-.17-.064c-.074 0-.133.025-.177.075s-.066.113-.066.189zm4.133.997a.827.827 0 01-.269.569c-.156.135-.364.203-.623.203a.902.902 0 01-.48-.128c-.137-.086-.244-.209-.319-.367s-.114-.342-.117-.552v-.212c0-.215.038-.404.114-.567a.86.86 0 01.821-.511c.251 0 .453.068.606.205s.242.329.267.578h-.394c-.019-.164-.067-.281-.144-.353-.076-.073-.188-.109-.336-.109a.464.464 0 00-.397.189c-.092.125-.139.309-.141.552v.202c0 .246.044.433.131.563s.218.194.387.194c.155 0 .272-.035.35-.105s.128-.186.148-.348h.394zm2.17-.338c0 .223-.039.419-.116.588a.884.884 0 01-.331.388.905.905 0 01-.494.134.926.926 0 01-.494-.134.896.896 0 01-.334-.386 1.362 1.362 0 01-.119-.576v-.128c0-.222.039-.418.117-.588a.887.887 0 01.333-.389c.144-.091.308-.136.494-.136s.349.045.492.134c.144.088.255.217.333.384s.118.361.119.583v.127zm-.396-.118c0-.252-.048-.445-.144-.58a.468.468 0 00-.405-.202.467.467 0 00-.402.202c-.096.133-.145.322-.147.567v.131c0 .25.048.443.145.58a.473.473 0 00.406.205.464.464 0 00.403-.2c.095-.133.142-.328.142-.584v-.119z"/></symbol><symbol id="icon-Client2" viewBox="0 0 32 32"><path fill="var(--color3, #afb1b8)" d="M14.14 1.806h.084c.156 0 .324.016.49.03.734.052 1.463.162 2.179.329V.403a12.97 12.97 0 00-2.25-.358 18.11 18.11 0 00-.909-.044h-.263a18.35 18.35 0 00-4.515.582 18.3 18.3 0 00-4.79 1.948v17.475a19.484 19.484 0 014.566-1.779 19.948 19.948 0 013.833-.588h.051c.216-.011.433-.017.655-.019v-1.79a21.155 21.155 0 00-4.982.662 23.81 23.81 0 00-1.731.513l-.623.211V3.591l.266-.128a17.409 17.409 0 016.471-1.651.523.523 0 01.056 0c.248-.013.497-.019.741-.019h.28c.129.003.258.006.388.014z"/><path fill="var(--color3, #afb1b8)" d="M18.53 3.651a15.823 15.823 0 01-2.606-.211c-.277-.047-.55-.103-.814-.164v17.275a13.82 13.82 0 003.425.404 18.396 18.396 0 004.515-.581 18.362 18.362 0 004.792-1.948V1.263a19.562 19.562 0 01-4.564 1.781 19.388 19.388 0 01-4.747.609zm6.907.299l.623-.21v13.63l-.266.128a17.055 17.055 0 01-3.184 1.144c-1.331.344-2.7.522-4.074.527-.411 0-.819-.017-1.214-.052l-.427-.038V5.062l.497.033c.361.023.735.034 1.141.034a21.098 21.098 0 005.173-.663 26.802 26.802 0 001.731-.518zM5.377 25.977a.912.912 0 00-.693-.28 1.034 1.034 0 00-.4.075.91.91 0 00-.512.518 1.023 1.023 0 00-.072.387v2.335c-.006.165.026.328.092.479.055.12.135.226.234.313a.815.815 0 00.321.166c.114.032.231.048.349.049a.972.972 0 00.892-.61.951.951 0 00.075-.372v-.261h-.61v.208a.528.528 0 01-.036.208.359.359 0 01-.089.131.365.365 0 01-.128.067.425.425 0 01-.128.022.314.314 0 01-.286-.125.548.548 0 01-.081-.313v-2.177a.738.738 0 01.075-.349.31.31 0 01.299-.141.33.33 0 01.272.131c.068.09.104.2.101.313v.202h.604v-.238a1.093 1.093 0 00-.279-.737zM9.002 25.95a1.091 1.091 0 00-.694-.257 1.075 1.075 0 00-.364.066.961.961 0 00-.559.518 1.099 1.099 0 00-.089.452v2.239a1.08 1.08 0 00.089.459c.055.12.136.227.237.313a.94.94 0 00.322.197c.117.043.24.065.364.066s.248-.022.364-.066c.121-.044.233-.111.33-.197a.948.948 0 00.23-.313c.063-.144.093-.301.089-.459v-2.239a1.08 1.08 0 00-.089-.452 1.015 1.015 0 00-.23-.327zm-.285 3.019a.405.405 0 01-.121.324.445.445 0 01-.574 0 .397.397 0 01-.121-.324V26.73a.405.405 0 01.121-.324.445.445 0 01.574 0 .397.397 0 01.121.324v2.239zM13.765 29.969V25.73h-.587l-.771 2.244h-.011l-.777-2.244h-.581v4.239h.606V27.39h.011l.593 1.823h.302l.598-1.823h.011v2.579h.606zM17.205 26.027a.84.84 0 00-.343-.232 1.363 1.363 0 00-.439-.066h-.9v4.239h.604v-1.656h.311c.188.009.376-.031.545-.116a.882.882 0 00.332-.324 1.02 1.02 0 00.139-.369c.024-.16.035-.321.033-.482a2.421 2.421 0 00-.059-.606.898.898 0 00-.223-.39zm-.311 1.292a.547.547 0 01-.056.221.346.346 0 01-.156.149.619.619 0 01-.285.053h-.276v-1.441h.311a.578.578 0 01.272.053.349.349 0 01.142.157.62.62 0 01.053.236v.282c0 .099.006.2 0 .291h-.006zM20.066 25.73h-.495l-.934 4.239h.604l.177-.911h.823l.177.911h.604l-.957-4.239zm-.557 2.751l.297-1.537h.011l.296 1.537h-.604zM23.969 28.283h-.011l-.912-2.554h-.581v4.239h.604v-2.549h.012l.923 2.549h.568v-4.239h-.604v2.554zM27.66 25.73l-.486 1.685h-.012l-.486-1.685h-.64l.83 2.447v1.792h.604v-1.792l.83-2.447h-.64zM3.692 31.166h.291v.817h.198v-.817h.29v-.167h-.778v.167zM6.14 30.998l-.381.984h.21l.081-.224h.392l.084.224h.215l-.391-.984h-.21zm-.032.595l.134-.365.134.365h-.268zM8.559 31.62h.227v.127a.38.38 0 01-.233.083.244.244 0 01-.209-.093.411.411 0 01-.073-.257c0-.219.095-.329.283-.329a.206.206 0 01.222.157l.195-.038c-.042-.192-.181-.289-.417-.289a.495.495 0 00-.344.127.494.494 0 00-.141.379.532.532 0 00.126.369.477.477 0 00.374.144.59.59 0 00.417-.157v-.388h-.427v.166zM11.029 30.998h-.199v.984h.69v-.167h-.49v-.817zM13.118 30.998h-.199v.984h.199v-.984zM15.161 31.656l-.403-.657h-.193v.984h.185v-.643l.395.643h.198v-.984h-.182v.657zM17.007 31.549h.49v-.167h-.49v-.216h.528v-.167h-.727v.984h.747v-.167h-.548v-.266zM21.484 31.387h-.388v-.388h-.198v.984h.198v-.43h.388v.43h.198v-.984h-.198v.388zM23.342 31.549h.492v-.167h-.492v-.216h.529v-.167h-.727v.984h.746v-.167h-.548v-.266zM25.861 31.549c.171-.027.258-.117.258-.274a.236.236 0 00-.096-.219.553.553 0 00-.288-.058h-.417v.984h.198v-.412h.039a.261.261 0 01.123.022.21.21 0 01.07.072l.215.313h.237l-.12-.192a.685.685 0 00-.218-.236zm-.2-.136h-.146v-.247h.156a.507.507 0 01.201.023c.014.013.026.029.033.046a.133.133 0 01-.005.111.128.128 0 01-.037.043.547.547 0 01-.201.023zM27.76 31.549h.49v-.167h-.49v-.216h.529v-.167h-.729v.984h.747v-.167h-.548v-.266z"/></symbol><symbol id="icon-Client3" viewBox="0 0 32 32"><path fill="var(--color3, #afb1b8)" d="M5.467 31.103a.088.088 0 01.059.025l.153.161c-.119.13-.266.234-.431.305a1.532 1.532 0 01-.611.109 1.496 1.496 0 01-.574-.102 1.25 1.25 0 01-.712-.733 1.618 1.618 0 01-.098-.571c-.003-.195.033-.39.105-.573.067-.166.168-.317.297-.445.131-.126.287-.224.459-.29.189-.07.389-.104.591-.102.188-.004.375.027.549.093.152.063.291.15.412.257l-.128.171a.122.122 0 01-.033.031.084.084 0 01-.052.013.123.123 0 01-.056-.018l-.069-.046-.096-.058a.978.978 0 00-.302-.103 1.238 1.238 0 00-.228-.018 1.12 1.12 0 00-.425.077.96.96 0 00-.333.215.997.997 0 00-.216.343c-.054.145-.08.298-.078.452-.002.156.024.312.078.46.047.126.119.242.212.341a.863.863 0 00.318.212c.125.049.259.074.394.073.078.001.156-.004.234-.015a.87.87 0 00.354-.122c.054-.034.104-.072.151-.113a.115.115 0 01.073-.029zM9.888 30.296c.002.194-.033.386-.103.567-.062.165-.161.315-.288.44s-.282.224-.452.289a1.711 1.711 0 01-1.164 0 1.281 1.281 0 01-.741-.735 1.61 1.61 0 010-1.136c.065-.166.164-.317.291-.447.128-.121.281-.216.45-.279.374-.139.79-.139 1.164 0 .17.066.324.165.452.29.126.127.224.276.289.44.071.183.106.376.103.571zm-.402 0a1.313 1.313 0 00-.073-.456.898.898 0 00-.528-.556 1.23 1.23 0 00-.846 0 .901.901 0 00-.531.556 1.465 1.465 0 000 .912.888.888 0 00.531.554c.273.097.573.097.846 0a.884.884 0 00.528-.554c.051-.147.076-.301.073-.456zM12.905 30.774l.04.102a3.46 3.46 0 01.044-.102.933.933 0 01.05-.1l.978-1.694c.019-.029.036-.047.056-.053a.217.217 0 01.08-.009h.289v2.755h-.343v-2.026-.086a.753.753 0 010-.095l-.984 1.718c-.012.026-.033.047-.058.063s-.054.023-.084.023h-.056a.154.154 0 01-.141-.086l-1.013-1.729V31.668h-.331v-2.75h.289a.24.24 0 01.08.009c.024.011.043.03.054.053l.999 1.696c.02.031.036.064.05.098zM16.586 30.638v1.032h-.383v-2.752h.854a1.67 1.67 0 01.477.06.912.912 0 01.337.171.699.699 0 01.191.27.905.905 0 01.065.352.84.84 0 01-.071.352.744.744 0 01-.207.275.936.936 0 01-.339.182 1.498 1.498 0 01-.461.064l-.463-.007zm0-.296h.463a.992.992 0 00.297-.042.617.617 0 00.214-.119.477.477 0 00.13-.182.579.579 0 00.046-.232.522.522 0 00-.172-.412.766.766 0 00-.515-.148h-.463v1.134zM21.731 31.673h-.302a.133.133 0 01-.084-.026.164.164 0 01-.05-.064l-.26-.666h-1.307l-.27.666a.145.145 0 01-.048.062.132.132 0 01-.086.027h-.302l1.148-2.756h.398l1.164 2.756zm-1.895-1.023h1.08l-.456-1.122a1.828 1.828 0 01-.086-.259l-.044.144c-.013.044-.029.084-.042.117l-.452 1.12zM23.385 28.931a.16.16 0 01.057.049l1.675 2.077v-.097V28.918h.343v2.756h-.191a.173.173 0 01-.078-.016.2.2 0 01-.061-.051l-1.673-2.075a.753.753 0 010 .095v2.048h-.343v-2.756h.203a.163.163 0 01.069.013zM28.281 30.577v1.094h-.383v-1.094l-1.059-1.66h.343a.124.124 0 01.082.024.256.256 0 01.052.062l.662 1.071a1.256 1.256 0 01.117.245l.05-.119c.019-.043.04-.085.065-.126l.653-1.078a.274.274 0 01.05-.058.116.116 0 01.082-.027h.346l-1.06 1.667zM12.715 24.293c.167.02.335.036.505.051 2.583-1.101 4.768-2.902 6.282-5.18s2.29-4.929 2.231-7.624l-2.846-2.712c.579 2.869.308 5.836-.782 8.567s-2.956 5.12-5.389 6.898z"/><path fill="var(--color3, #afb1b8)" d="M11.699 24.167l.077.015c2.6-1.772 4.583-4.247 5.691-7.104s1.292-5.965.526-8.922l-4.054-3.862c1.64 3.175 2.3 6.728 1.903 10.246s-1.833 6.857-4.143 9.628zM25.448 14.725c-.689 2.961-2.362 5.632-4.77 7.616a15.094 15.094 0 01-2.266 1.55c1.961-.549 3.764-1.52 5.269-2.838s2.672-2.947 3.412-4.763l-1.644-1.565z"/><path fill="var(--color3, #afb1b8)" d="M24.803 14.289l-2.341-2.23c-.045 2.543-.804 5.028-2.197 7.197s-3.372 3.943-5.729 5.137h.012c.525 0 1.05-.03 1.571-.089 2.203-.857 4.148-2.219 5.664-3.967s2.553-3.825 3.021-6.047zM12.038 2.664L9.245 0C6.748.919 4.601 2.535 3.084 4.636S.752 9.225.744 11.775c.009 2.818 1.005 5.552 2.829 7.77s4.372 3.793 7.242 4.476c2.561-2.973 4.061-6.647 4.281-10.488s-.851-7.648-3.058-10.869zM31.256 13.878c-.01-3.343-1.408-6.546-3.89-8.91s-5.843-3.696-9.352-3.706a13.655 13.655 0 00-4.741.841l17.099 16.291c.586-1.44.885-2.971.884-4.515z"/></symbol><symbol id="icon-Client4" viewBox="0 0 32 32"><path fill="var(--color3, #afb1b8)" stroke="var(--color4, #fff)" stroke-width=".4" d="M4.96 12.732h.001c.799 0 1.439.63 1.439 1.397v.001c0 .767-.639 1.397-1.439 1.397H4.96c-.799 0-1.438-.63-1.438-1.397v-.001c0-.767.639-1.397 1.438-1.397zM7.947 18.523l-.178.026v-6.527c.003-1.171.481-2.293 1.332-3.123s2.006-1.297 3.212-1.299c1.205.003 2.36.471 3.21 1.3s1.329 1.952 1.331 3.122v.001s0 0 0 0c-.001 2.729-2.26 4.37-4.619 5.338a18.81 18.81 0 01-3.225.969c-.44.092-.807.154-1.063.193zM3.1 22.016a1.08 1.08 0 01-.389-.156c-.175-.114-.312-.276-.393-.467a1.02 1.02 0 01.232-1.139 1.077 1.077 0 011.634.158c.118.171.181.374.181.581M3.1 22.016v.022h.2a1.087 1.087 0 00.752-.305 1.044 1.044 0 00.313-.741M3.1 22.016c.066.012.133.019.2.019v-.197l-.2.178zm1.264-1.023h-.2l.2-.001v.001zm1.127 2.129a3.15 3.15 0 01-4.382 0A2.99 2.99 0 01.2 20.993c0-1.858 1.538-2.985 3.176-3.657.81-.332 1.622-.543 2.234-.671.305-.064.559-.107.737-.134l.054-.008v4.471a2.983 2.983 0 01-.909 2.128z"/><path fill="var(--color3, #afb1b8)" d="M10.036 21.312h-.675v.697h-.352v-1.706h1.111v.285h-.759v.441h.675v.284zm1.69-.117c0 .168-.03.315-.089.442a.671.671 0 01-.635.396.678.678 0 01-.637-.393 1.009 1.009 0 01-.093-.436v-.084c0-.168.03-.316.09-.443a.672.672 0 01.637-.397c.142 0 .268.034.378.103.111.068.197.166.257.294s.091.275.091.442v.076zm-.357-.077c0-.179-.032-.315-.096-.408s-.155-.139-.274-.139c-.118 0-.209.046-.273.138s-.096.226-.097.403v.083c0 .174.032.309.096.405s.156.144.277.144c.118 0 .209-.046.272-.138s.095-.228.096-.405v-.083zm1.497.444c0-.066-.023-.117-.07-.152s-.131-.073-.253-.112a1.853 1.853 0 01-.289-.117c-.194-.105-.291-.246-.291-.423 0-.092.026-.174.077-.246s.127-.129.224-.17c.098-.041.207-.061.328-.061s.23.022.326.067a.495.495 0 01.301.46h-.352c0-.078-.025-.139-.074-.182s-.118-.066-.207-.066c-.086 0-.153.018-.2.055s-.071.084-.071.143c0 .055.028.102.083.139s.139.073.247.105c.2.06.346.135.437.224s.137.2.137.333c0 .148-.056.264-.168.348s-.262.125-.451.125c-.131 0-.251-.024-.359-.071s-.19-.114-.247-.198a.51.51 0 01-.084-.291h.353c0 .188.112.282.337.282.084 0 .149-.017.196-.05s.07-.082.07-.143zm1.876-.974h-.523v1.421h-.352v-1.421h-.516v-.285h1.39v.285zm1.228.682h-.675v.457h.792v.282h-1.144v-1.706h1.141v.285h-.79v.407h.675v.275zm.955.115h-.28v.625h-.352v-1.706h.634c.202 0 .357.045.466.135s.164.217.164.381c0 .116-.025.214-.076.292s-.126.139-.229.185l.369.697v.016h-.377l-.32-.625zm-.28-.285h.284c.088 0 .157-.022.205-.067s.073-.107.073-.186c0-.08-.023-.144-.069-.19s-.115-.069-.21-.069h-.282v.512zm2.131.309v.601h-.352v-1.706h.666c.128 0 .241.023.338.07a.523.523 0 01.304.494c0 .167-.057.299-.172.396s-.272.144-.475.144h-.308zm0-.285h.314c.093 0 .164-.022.212-.066s.074-.106.074-.187c0-.084-.025-.151-.074-.203s-.117-.078-.204-.08h-.322v.536zM21 21.27h-.675v.457h.792v.282h-1.144v-1.706h1.141v.285h-.79v.407h.675v.275zm1.631-.682h-.523v1.421h-.352v-1.421h-.516v-.285h1.39v.285zm1.228.682h-.675v.457h.792v.282h-1.144v-1.706h1.141v.285h-.79v.407h.675v.275zm.955.115h-.28v.625h-.352v-1.706h.634c.202 0 .357.045.466.135s.164.217.164.381c0 .116-.025.214-.076.292s-.126.139-.228.185l.369.697v.016h-.377l-.32-.625zm-.28-.285h.284c.088 0 .157-.022.205-.067s.073-.107.073-.186c0-.08-.023-.144-.069-.19s-.115-.069-.21-.069h-.282v.512zm2.066.462c0-.066-.023-.117-.07-.152s-.131-.073-.253-.112a1.853 1.853 0 01-.289-.117c-.194-.105-.291-.246-.291-.423 0-.092.026-.174.077-.246s.127-.129.224-.17c.098-.041.207-.061.328-.061s.23.022.326.067a.495.495 0 01.301.46h-.352c0-.078-.025-.139-.074-.182s-.118-.066-.207-.066c-.086 0-.153.018-.2.055s-.071.084-.071.143c0 .055.028.102.083.139s.139.073.247.105c.2.06.346.135.437.224s.137.2.137.333c0 .148-.056.264-.168.348s-.262.125-.451.125c-.131 0-.251-.024-.359-.071s-.19-.114-.247-.198a.51.51 0 01-.084-.291h.353c0 .188.112.282.337.282.084 0 .149-.017.196-.05s.07-.082.07-.143z"/><path fill="var(--color4, #fff)" d="M10.036 21.312v.4h.4v-.4h-.4zm-.675 0v-.4h-.4v.4h.4zm0 .698v.4h.4v-.4h-.4zm-.352 0h-.4v.4h.4v-.4zm0-1.706v-.4h-.4v.4h.4zm1.111 0h.4v-.4h-.4v.4zm0 .284v.4h.4v-.4h-.4zm-.759 0v-.4h-.4v.4h.4zm0 .441h-.4v.4h.4v-.4zm.675 0h.4v-.4h-.4v.4zm0-.117h-.675v.8h.675v-.8zm-1.075.4v.697h.8v-.697h-.8zm.4.298h-.352v.8h.352v-.8zm.048.4v-1.706h-.8v1.706h.8zm-.4-1.306h1.111v-.8H9.009v.8zm.711-.4v.285h.8v-.285h-.8zm.4-.116h-.759v.8h.759v-.8zm-1.159.4v.441h.8v-.441h-.8zm.4.841h.675v-.8h-.675v.8zm.275-.4v.284h.8v-.284h-.8zm1.745.901l-.211-.34-.001.001.212.339zm-1.016-.289l-.36.174v.001l.36-.174zm-.093-.436h-.4v.002l.4-.002zm.091-.528l-.361-.172v.001l.362.171zm.256-.294l.21.34h.001l-.211-.34zm.759 0l-.212.339.003.002.209-.341zm.256.294l-.362.17.001.003.361-.173zm-.908.032l.328.23.001-.001-.328-.228zm-.097.403l-.4-.002v.002h.4zm.644.495l.33.226.001-.001-.331-.225zm.096-.406l.4.002v-.002h-.4zm-.043-.006a.634.634 0 01-.051.272l.724.34c.089-.189.127-.397.127-.612h-.8zm-.052.272a.271.271 0 01-.104.123l.421.68c.182-.113.317-.272.407-.463l-.724-.34zm-.105.124a.305.305 0 01-.168.042v.8c.21 0 .411-.051.591-.164l-.424-.679zm-.168.042a.315.315 0 01-.17-.043l-.418.682c.179.11.379.161.587.161v-.8zm-.169-.043a.279.279 0 01-.107-.124l-.72.349c.092.189.228.346.409.457l.418-.682zm-.107-.123a.618.618 0 01-.053-.264l-.8.004c.001.214.041.419.132.608l.721-.347zm-.053-.262v-.084h-.8v.084h.8zm0-.085a.62.62 0 01.052-.272l-.723-.342c-.09.19-.129.398-.129.614h.8zm.052-.271a.285.285 0 01.105-.126l-.42-.681a1.076 1.076 0 00-.408.463l.722.344zm.106-.126a.307.307 0 01.169-.043v-.8c-.21 0-.411.052-.59.163l.421.68zm.169-.043c.075 0 .126.017.167.042l.424-.679a1.102 1.102 0 00-.59-.164v.8zm.17.044a.273.273 0 01.104.123l.724-.34a1.061 1.061 0 00-.41-.465l-.418.682zm.104.126a.613.613 0 01.052.269h.8c0-.216-.04-.424-.131-.614l-.722.345zm.053.269v.076h.8v-.076h-.8zm.443-.001c0-.216-.037-.446-.167-.635l-.659.454c-.002-.003.005.006.012.036s.013.078.013.144h.8zm-.166-.635a.711.711 0 00-.604-.312v.8c.006 0-.005.001-.024-.009-.009-.004-.016-.01-.022-.015s-.009-.009-.009-.01l.659-.454zm-.604-.312a.714.714 0 00-.602.31l.657.457c0 .001-.003.005-.009.01s-.014.011-.022.015c-.019.009-.03.009-.024.009v-.8zm-.601.308c-.131.187-.169.416-.17.631l.8.004c0-.066.007-.112.014-.142s.014-.037.011-.034l-.655-.459zm-.169.633v.083h.8v-.083h-.8zm0 .083c0 .216.038.44.163.627l.666-.444c-.003-.005-.029-.051-.029-.184h-.8zm.163.628a.71.71 0 00.609.322v-.8c-.006 0 .006-.001.026.009.009.005.017.01.022.016l.008.009-.666.444zm.609.322a.71.71 0 00.602-.312l-.66-.453.01-.011a.103.103 0 01.023-.016c.019-.01.031-.009.025-.009v.8zm.603-.313c.127-.187.164-.414.165-.629l-.8-.004c0 .066-.006.113-.014.144s-.014.04-.013.038l.661.45zm.165-.631v-.083h-.8v.083h.8zm1.027.209l-.243.317.003.003.24-.32zm-.254-.113l-.124.38.002.001.122-.381zm-.289-.117l-.19.352.19-.352zm-.213-.669l-.325-.234v.001l.325.233zm.223-.17l-.154-.369h-.001l.155.369zm.654.006l-.169.362.002.001.167-.364zm.222.186l-.335.218.001.002.334-.22zm.08.274v.4h.4v-.4h-.4zm-.352 0h-.4v.4h.4v-.4zm-.074-.181l-.266.299.003.002.263-.301zm-.408-.011l.241.319.003-.003-.244-.317zm.012.283l-.224.331.002.001.222-.333zm.247.105l-.116.383.115-.383zm.407.905l.24.32.001-.001-.241-.319zm-.81.054l-.164.365.002.001.162-.366zm-.247-.198l-.332.223.001.002.33-.225zm-.084-.291v-.4h-.4v.4h.4zm.352 0h.4v-.4h-.4v.4zm.534.232l.233.325.004-.003-.237-.323zm.47-.143a.577.577 0 00-.23-.472l-.48.64a.224.224 0 01-.089-.168h.8zm-.227-.47a1.282 1.282 0 00-.374-.176l-.244.762c.052.017.089.031.114.042.028.012.029.016.018.007l.487-.635zm-.372-.175a1.484 1.484 0 01-.224-.089l-.379.704c.1.054.222.102.355.145l.249-.76zm-.224-.089c-.057-.031-.075-.053-.078-.059l-.001-.002v-.002-.008h-.8c0 .362.214.62.5.775l.38-.704zm-.081-.071l.001-.009v-.002c0-.001 0 0 0 0l.001-.002-.65-.466a.814.814 0 00-.152.479h.8zm.002-.012c.002-.003.013-.018.054-.035l-.309-.738a.914.914 0 00-.394.305l.649.468zm.053-.035a.443.443 0 01.174-.03v-.8c-.166 0-.329.028-.482.092l.307.739zm.175-.03c.073 0 .122.013.156.029l.339-.725a1.158 1.158 0 00-.495-.104v.8zm.159.03c.033.015.046.03.053.041l.671-.436a.91.91 0 00-.39-.332l-.334.727zm.054.044a.09.09 0 01.014.054h.8a.887.887 0 00-.146-.495l-.668.441zm.414-.347h-.352v.8h.352v-.8zm.048.4a.625.625 0 00-.211-.483l-.526.603a.188.188 0 01-.052-.073c-.011-.026-.011-.044-.011-.047h.8zm-.208-.48a.698.698 0 00-.473-.167v.8c.013 0 .01.002-.002-.002a.148.148 0 01-.056-.033l.532-.598zm-.473-.167a.72.72 0 00-.445.138l.488.634c-.023.018-.043.025-.052.028s-.007.001.009.001v-.8zm-.441.136a.571.571 0 00-.231.462h.8a.23.23 0 01-.087.177l-.482-.639zm-.231.462c0 .217.12.377.259.471l.448-.663c.01.007.035.026.057.063.024.04.036.086.036.128h-.8zm.261.472c.104.069.229.118.353.156l.231-.766c-.093-.028-.132-.05-.141-.055l-.444.666zm.354.156c.173.052.248.103.273.127l.558-.573c-.158-.154-.374-.252-.601-.32l-.23.766zm.273.127c.009.009.011.014.012.016s.004.011.004.03h.8a.844.844 0 00-.258-.619l-.558.573zm.017.047c0 .012-.001.019-.002.022l-.001.002.001-.002-.008.007.482.638a.812.812 0 00.327-.667h-.8zm-.008.028c-.022.016-.079.046-.212.046v.8c.245 0 .489-.054.691-.205l-.479-.641zm-.211.045a.494.494 0 01-.197-.037l-.323.732c.164.073.34.106.52.106v-.8zm-.195-.036a.18.18 0 01-.081-.059l-.661.451c.105.154.25.264.414.337l.328-.73zm-.079-.057c-.008-.011-.016-.029-.016-.067h-.8c0 .182.048.358.153.514l.664-.447zm-.416.333h.353v-.8h-.353v.8zm-.048-.4a.66.66 0 00.228.519.78.78 0 00.51.164v-.8a.155.155 0 01-.04-.003c.002.001.021.006.044.026a.18.18 0 01.052.071c.009.022.007.033.007.024h-.8zm.738.682c.131 0 .29-.026.429-.125l-.466-.65c.023-.016.042-.023.049-.024s.004 0-.012 0v.8zm.432-.127a.568.568 0 00.234-.466h-.8a.236.236 0 01.093-.18l.473.645zm1.71-1.44v.4h.4v-.4h-.4zm-.523 0v-.4h-.4v.4h.4zm0 1.422v.4h.4v-.4h-.4zm-.351 0h-.4v.4h.4v-.4zm0-1.422h.4v-.4h-.4v.4zm-.516 0h-.4v.4h.4v-.4zm0-.284v-.4h-.4v.4h.4zm1.39 0h.4v-.4h-.4v.4zm0-.116h-.523v.8h.523v-.8zm-.923.4v1.421h.8v-1.421h-.8zm.4 1.022h-.352v.8h.352v-.8zm.049.4v-1.421h-.8v1.421h.8zm-.4-1.822h-.516v.8h.516v-.8zm-.116.4v-.285h-.8v.285h.8zm-.4.116h1.39v-.8h-1.39v.8zm.99-.4v.285h.8v-.285h-.8zm1.628.966v.4h.4v-.4h-.4zm-.675 0v-.4h-.4v.4h.4zm0 .457h-.4v.4h.4v-.4zm.792 0h.4v-.4h-.4v.4zm0 .283v.4h.4v-.4h-.4zm-1.143 0h-.4v.4h.4v-.4zm0-1.706v-.4h-.4v.4h.4zm1.141 0h.4v-.4h-.4v.4zm0 .284v.4h.4v-.4h-.4zm-.79 0v-.4h-.4v.4h.4zm0 .407h-.4v.4h.4v-.4zm.675 0h.4v-.4h-.4v.4zm0-.125h-.675v.8h.675v-.8zm-1.075.4v.457h.8v-.457h-.8zm.4.857h.792v-.8h-.792v.8zm.392-.4v.282h.8v-.282h-.8zm.4-.117h-1.144v.8h1.144v-.8zm-.743.4v-1.706h-.8v1.706h.8zm-.4-1.306h1.141v-.8h-1.141v.8zm.741-.4v.285h.8v-.285h-.8zm.4-.116h-.79v.8h.79v-.8zm-1.19.4v.407h.8v-.407h-.8zm.4.807h.675v-.8h-.675v.8zm.275-.4v.275h.8v-.275h-.8zm1.355.39l.356-.182-.111-.218h-.245v.4zm-.28 0v-.4h-.4v.4h.4zm0 .625v.4h.4v-.4h-.4zm-.351 0h-.4v.4h.4v-.4zm0-1.706v-.4h-.4v.4h.4zm1.188.807l-.335-.218-.001.001.336.217zm-.229.185l-.164-.365-.389.175.199.377.354-.187zm.369.697h.4v-.099l-.047-.088-.353.187zm0 .017v.4h.4v-.4h-.4zm-.377 0l-.356.182.111.218h.245v-.4zm-.6-.91h-.4v.4h.4v-.4zm.489-.066l.271.294.003-.002-.273-.292zm.003-.377l-.285.28.002.002.283-.283zm-.492-.069v-.4h-.4v.4h.4zm.28.397h-.28v.8h.28v-.8zm-.68.4v.625h.8v-.625h-.8zm.4.225h-.352v.8h.352v-.8zm.049.4v-1.706h-.8v1.706h.8zm-.4-1.306h.634v-.8h-.634v.8zm.634 0c.147 0 .2.033.213.044l.508-.618c-.206-.169-.465-.226-.72-.226v.8zm.212.043c.007.005.008.008.01.012a.163.163 0 01.008.06h.8a.864.864 0 00-.31-.69l-.508.618zm.018.072c0 .029-.003.048-.006.059l-.005.015.671.436a.924.924 0 00.141-.51h-.8zm-.012.075c-.001.001-.003.005-.011.011s-.022.016-.046.027l.329.729a.913.913 0 00.4-.333l-.672-.434zm-.246.589l.369.697.707-.374-.369-.697-.707.374zm.322.51v.016h.8v-.016h-.8zm.4-.383h-.377v.8h.377v-.8zm-.021.217l-.32-.625-.712.365.32.625.712-.365zm-.956-.327h.284v-.8h-.284v.8zm.284 0c.154 0 .331-.04.476-.172l-.541-.589a.172.172 0 01.059-.036c.014-.004.018-.003.006-.003v.8zm.478-.174a.64.64 0 00.199-.478h-.8c0-.001 0-.017.009-.04a.185.185 0 01.045-.066l.547.584zm.199-.479a.655.655 0 00-.186-.473l-.566.566a.182.182 0 01-.041-.064c-.007-.02-.007-.031-.007-.029h.8zm-.183-.47a.678.678 0 00-.495-.189v.8c.016 0 .013.002-.002-.003a.19.19 0 01-.074-.048l.571-.561zm-.495-.189h-.282v.8h.282v-.8zm-.683.4v.512h.8v-.512h-.8zm2.531.821v-.4h-.4v.4h.4zm0 .601v.4h.4v-.4h-.4zm-.352 0h-.4v.4h.4v-.4zm0-1.706v-.4h-.4v.4h.4zm1.003.07l-.174.36.001.001.173-.361zm.225.2l-.342.207.001.001.342-.208zm-.094.69l.258.306-.258-.306zm-.782-.14h-.4v.4h.4v-.4zm.526-.066l-.266-.299-.002.002.268.297zm-.204-.47l.007-.4h-.008v.4zm-.322 0v-.4h-.4v.4h.4zm-.4.821v.601h.8v-.601h-.8zm.4.201h-.352v.8h.352v-.8zm.048.4v-1.706h-.8v1.706h.8zm-.4-1.306h.666v-.8h-.666v.8zm.666 0c.079 0 .13.014.163.03l.348-.72a1.163 1.163 0 00-.512-.11v.8zm.164.03a.125.125 0 01.056.046l.685-.413a.916.916 0 00-.394-.354l-.346.721zm.057.048c.011.017.02.042.02.086h.8a.954.954 0 00-.137-.502l-.683.416zm.02.086c0 .064-.016.079-.03.09l.516.611a.89.89 0 00.314-.702h-.8zm-.03.091c-.02.017-.075.05-.217.05v.8c.263 0 .524-.063.732-.238l-.515-.612zm-.217.05h-.308v.8h.308v-.8zm-.308.515h.314v-.8h-.314v.8zm.314 0a.7.7 0 00.48-.169l-.536-.594a.164.164 0 01.061-.036c.011-.003.012-.001-.005-.001v.8zm.478-.167a.636.636 0 00.208-.486h-.8c0 .001 0-.015.009-.039a.198.198 0 01.051-.073l.532.598zm.208-.486a.683.683 0 00-.184-.479l-.579.552a.14.14 0 01-.031-.05c-.006-.017-.006-.026-.006-.023h.8zm-.185-.479a.673.673 0 00-.486-.203l-.014.8c.005 0-.005.001-.022-.006a.15.15 0 01-.056-.038l.579-.552zm-.493-.204h-.322v.8h.322v-.8zm-.722.4v.536h.8v-.536h-.8zM21 21.27v.4h.4v-.4H21zm-.675 0v-.4h-.4v.4h.4zm0 .457h-.4v.4h.4v-.4zm.792 0h.4v-.4h-.4v.4zm0 .283v.4h.4v-.4h-.4zm-1.144 0h-.4v.4h.4v-.4zm0-1.706v-.4h-.4v.4h.4zm1.142 0h.4v-.4h-.4v.4zm0 .284v.4h.4v-.4h-.4zm-.79 0v-.4h-.4v.4h.4zm0 .407h-.4v.4h.4v-.4zm.675 0h.4v-.4H21v.4zm0-.125h-.675v.8H21v-.8zm-1.075.4v.457h.8v-.457h-.8zm.4.857h.792v-.8h-.792v.8zm.392-.4v.282h.8v-.282h-.8zm.4-.117h-1.144v.8h1.144v-.8zm-.744.4v-1.706h-.8v1.706h.8zm-.4-1.306h1.141v-.8h-1.141v.8zm.742-.4v.285h.8v-.285h-.8zm.4-.116h-.79v.8h.79v-.8zm-1.19.4v.407h.8v-.407h-.8zm.4.807H21v-.8h-.675v.8zm.275-.4v.275h.8v-.275h-.8zm2.031-.407v.4h.4v-.4h-.4zm-.523 0v-.4h-.4v.4h.4zm0 1.422v.4h.4v-.4h-.4zm-.351 0h-.4v.4h.4v-.4zm0-1.422h.4v-.4h-.4v.4zm-.516 0h-.4v.4h.4v-.4zm0-.284v-.4h-.4v.4h.4zm1.39 0h.4v-.4h-.4v.4zm0-.116h-.523v.8h.523v-.8zm-.923.4v1.421h.8v-1.421h-.8zm.4 1.022h-.352v.8h.352v-.8zm.049.4v-1.421h-.8v1.421h.8zm-.4-1.822h-.516v.8h.516v-.8zm-.116.4v-.285h-.8v.285h.8zm-.4.116h1.39v-.8h-1.39v.8zm.99-.4v.285h.8v-.285h-.8zm1.628.966v.4h.4v-.4h-.4zm-.675 0v-.4h-.4v.4h.4zm0 .457h-.4v.4h.4v-.4zm.792 0h.4v-.4h-.4v.4zm0 .283v.4h.4v-.4h-.4zm-1.143 0h-.4v.4h.4v-.4zm0-1.706v-.4h-.4v.4h.4zm1.141 0h.4v-.4h-.4v.4zm0 .284v.4h.4v-.4h-.4zm-.79 0v-.4h-.4v.4h.4zm0 .407h-.4v.4h.4v-.4zm.675 0h.4v-.4h-.4v.4zm0-.125h-.675v.8h.675v-.8zm-1.075.4v.457h.8v-.457h-.8zm.4.857h.792v-.8h-.792v.8zm.392-.4v.282h.8v-.282h-.8zm.4-.117h-1.144v.8h1.144v-.8zm-.743.4v-1.706h-.8v1.706h.8zm-.4-1.306h1.141v-.8h-1.141v.8zm.741-.4v.285h.8v-.285h-.8zm.4-.116h-.79v.8h.79v-.8zm-1.19.4v.407h.8v-.407h-.8zm.4.807h.675v-.8h-.675v.8zm.275-.4v.275h.8v-.275h-.8zm1.355.39l.356-.182-.111-.218h-.245v.4zm-.28 0v-.4h-.4v.4h.4zm0 .625v.4h.4v-.4h-.4zm-.351 0h-.4v.4h.4v-.4zm0-1.706v-.4h-.4v.4h.4zm1.188.807l-.335-.218-.001.001.336.217zm-.229.185l-.164-.365-.389.175.199.377.354-.187zm.37.697h.4v-.099l-.046-.088-.354.187zm0 .017v.4h.4v-.4h-.4zm-.378 0l-.356.182.111.218h.245v-.4zm-.6-.91h-.4v.4h.4v-.4zm.489-.066l.271.294.003-.002-.273-.292zm.003-.377l-.285.28.002.002.283-.283zm-.492-.069v-.4h-.4v.4h.4zm.28.397h-.28v.8h.28v-.8zm-.68.4v.625h.8v-.625h-.8zm.4.225h-.352v.8h.352v-.8zm.049.4v-1.706h-.8v1.706h.8zm-.4-1.306h.634v-.8h-.634v.8zm.634 0c.147 0 .2.033.213.044l.508-.618c-.206-.169-.465-.226-.72-.226v.8zm.212.043c.007.005.008.008.01.012a.163.163 0 01.008.06h.8a.864.864 0 00-.31-.69l-.508.618zm.018.072c0 .029-.003.048-.006.059l-.005.015.671.436a.924.924 0 00.141-.51h-.8zm-.012.075c-.001.001-.003.005-.011.011s-.022.016-.046.027l.329.729a.913.913 0 00.4-.333l-.672-.434zm-.246.589l.369.697.707-.374-.369-.697-.707.374zm.323.51v.016h.8v-.016h-.8zm.4-.383h-.377v.8h.377v-.8zm-.022.217l-.32-.625-.712.365.32.625.712-.365zm-.956-.327h.284v-.8h-.284v.8zm.284 0c.154 0 .331-.04.476-.172l-.541-.589a.172.172 0 01.059-.036c.014-.004.018-.003.006-.003v.8zm.478-.174a.64.64 0 00.199-.478h-.8c0-.001 0-.017.009-.04a.185.185 0 01.045-.066l.547.584zm.2-.479a.655.655 0 00-.186-.473l-.566.566a.182.182 0 01-.041-.064c-.007-.02-.007-.031-.007-.029h.8zm-.184-.47a.678.678 0 00-.495-.189v.8c.016 0 .013.002-.002-.003a.19.19 0 01-.074-.048l.57-.561zm-.495-.189h-.282v.8h.282v-.8zm-.683.4v.512h.8v-.512h-.8zm2.396.822l-.243.317.003.003.24-.32zm-.253-.113l-.124.38.002.001.122-.381zm-.29-.117l-.19.352h.001l.19-.352zm-.213-.669l-.325-.234v.001l.325.233zm.224-.17l-.154-.369h-.001l.155.369zm.654.006l-.169.362.002.001.167-.364zm.221.186l-.335.218.002.002.334-.22zm.08.274v.4h.4v-.4h-.4zm-.352 0h-.4v.4h.4v-.4zm-.073-.181l-.266.299.003.002.263-.301zm-.408-.011l.241.319.003-.003-.244-.317zm.011.283l-.224.331.002.001.222-.333zm.248.105l-.116.383.115-.383zm.406.905l.24.32.001-.001-.241-.319zm-.809.054l-.164.365.002.001.162-.366zm-.248-.198l-.332.223.001.002.33-.225zm-.084-.291v-.4h-.4v.4h.4zm.353 0h.4v-.4h-.4v.4zm.533.232l.233.325.004-.003-.237-.323zm.47-.143a.577.577 0 00-.23-.472l-.48.64a.224.224 0 01-.089-.168h.8zm-.227-.47a1.282 1.282 0 00-.374-.176l-.244.762c.052.017.089.031.114.042.028.012.029.016.018.007l.487-.635zm-.372-.175a1.484 1.484 0 01-.224-.089l-.379.704c.1.054.222.102.355.145l.249-.76zm-.224-.089c-.057-.031-.075-.053-.078-.059l-.001-.002v-.002-.008h-.8c0 .362.214.62.5.775l.38-.704zm-.08-.071l.001-.009v-.002c0-.001 0 0 0 0l.001-.002-.65-.466a.814.814 0 00-.152.479h.8zm.002-.012c.002-.003.013-.018.054-.035l-.309-.738a.914.914 0 00-.394.305l.649.468zm.052-.035a.443.443 0 01.174-.03v-.8c-.166 0-.329.028-.482.092l.307.739zm.175-.03c.073 0 .122.013.156.029l.339-.725a1.158 1.158 0 00-.495-.104v.8zm.159.03c.033.015.046.03.053.041l.671-.436a.91.91 0 00-.39-.332l-.334.727zm.054.044a.091.091 0 01.013.054h.8a.887.887 0 00-.146-.495l-.668.441zm.414-.347h-.352v.8h.352v-.8zm.048.4a.625.625 0 00-.211-.483l-.526.603a.188.188 0 01-.052-.073c-.011-.026-.011-.044-.011-.047h.8zm-.208-.48a.698.698 0 00-.473-.167v.8c.013 0 .01.002-.002-.002a.148.148 0 01-.056-.033l.531-.598zm-.473-.167a.724.724 0 00-.445.138l.488.634c-.023.018-.043.025-.052.028s-.007.001.009.001v-.8zm-.441.136a.571.571 0 00-.231.462h.8a.23.23 0 01-.087.177l-.482-.639zm-.231.462c0 .217.12.377.259.471l.448-.663c.01.007.035.026.057.063.024.04.036.086.036.128h-.8zm.262.472c.104.069.229.118.353.156l.231-.766c-.093-.028-.132-.05-.141-.055l-.444.666zm.353.156c.173.052.248.103.273.127l.558-.573c-.158-.154-.374-.252-.601-.32l-.23.766zm.274.127c.009.009.011.014.012.016s.004.011.004.03h.8a.844.844 0 00-.258-.619l-.558.573zm.016.047c0 .012-.001.019-.002.022l-.001.002.001-.002-.008.007.482.638a.811.811 0 00.326-.667h-.8zm-.007.028c-.022.016-.079.046-.212.046v.8c.245 0 .489-.054.691-.205l-.479-.641zm-.212.045a.494.494 0 01-.197-.037l-.323.732c.164.073.34.106.52.106v-.8zm-.194-.036a.18.18 0 01-.081-.059l-.661.451c.105.154.25.264.414.337l.328-.73zm-.08-.057c-.008-.011-.016-.029-.016-.067h-.8c0 .182.048.358.152.514l.664-.447zm-.416.333h.353v-.8h-.353v.8zm-.047-.4a.66.66 0 00.228.519.78.78 0 00.51.164v-.8c-.03 0-.041-.003-.04-.003s.021.006.044.026a.18.18 0 01.052.071c.009.022.007.033.007.024h-.8zm.737.682c.131 0 .29-.026.429-.125l-.466-.65c.023-.016.042-.023.049-.024s.004 0-.012 0v.8zm.432-.127a.568.568 0 00.234-.466h-.8a.236.236 0 01.093-.18l.473.645z"/></symbol><symbol id="icon-Client5" viewBox="0 0 32 32"><path fill="var(--color3, #afb1b8)" d="M2.434 24.557a.852.852 0 01.188.548.862.862 0 01-.291.692 1.258 1.258 0 01-.845.253H0v-3.474h1.455c.287-.019.572.062.806.231a.793.793 0 01.282.65.8.8 0 01-.169.531.784.784 0 01-.443.271.842.842 0 01.502.297zm-1.743-.524h.622c.141.01.282-.03.396-.115a.41.41 0 00.133-.339.433.433 0 00-.132-.34.6.6 0 00-.407-.117H.691v.911zm1.079 1.332c.05-.044.089-.098.115-.159s.037-.128.032-.194a.44.44 0 00-.151-.357.642.642 0 00-.423-.126H.691v.955h.661a.652.652 0 00.417-.12zM5.409 26.051l-.81-1.358h-.304v1.358h-.696v-3.474h1.318c.332-.023.661.082.918.295a1.113 1.113 0 01.098 1.438 1.07 1.07 0 01-.629.353l.862 1.388h-.757zM4.295 24.22h.57c.396 0 .593-.175.593-.526a.517.517 0 00-.146-.39.618.618 0 00-.448-.141h-.576l.007 1.057zM9.215 25.352H7.827l-.245.699h-.73l1.274-3.435h.789l1.269 3.435h-.73l-.24-.699zm-.186-.526l-.507-1.466-.507 1.466h1.014zM13.98 26.051h-.691l-1.55-2.362v2.362h-.69v-3.474h.69l1.55 2.376v-2.376h.691v3.474zM17.925 25.219a1.501 1.501 0 01-.625.613 2.025 2.025 0 01-.972.219h-1.231v-3.474h1.231c.336-.009.67.065.972.214.265.134.483.345.625.606a2.032 2.032 0 010 1.822zm-.791-.083a1.278 1.278 0 000-1.658 1.196 1.196 0 00-.865-.295h-.48v2.249h.48c.316.02.627-.086.865-.295zM9.648 3.254s8.923 3.382 8.734 8.277v8.278s-8.916-3.384-8.73-8.278l-.003-8.277zM26.331 17.871A12.198 12.198 0 0132 15.773v-2.591a11.643 11.643 0 00-5.669 4.689z"/><path fill="var(--color3, #afb1b8)" d="M25.318 18.652A12.14 12.14 0 0132 12.639V5.172S19.293 9.99 19.561 16.96v11.786s.566-.216 1.457-.619c0-.377 0-.757.041-1.139a12.261 12.261 0 014.259-8.336z"/><path fill="var(--color3, #afb1b8)" d="M24.11 23.03c.067-.817.216-1.626.445-2.413a11.41 11.41 0 00-2.691 7.119 36.68 36.68 0 002.444-1.293 12.251 12.251 0 01-.198-3.413zM24.615 23.073a11.68 11.68 0 00.157 3.09c3.472-2.086 7.373-5.308 7.222-9.203v-.339a11.372 11.372 0 00-6.605 3.099 11.679 11.679 0 00-.774 3.353z"/></symbol><symbol id="icon-Client6" viewBox="0 0 32 32"><path fill="var(--color3, #afb1b8)" d="M16.086 15.408a1.174 1.174 0 01-.205-.74v-1.072c0-.329.068-.579.204-.749s.369-.256.701-.255c.311 0 .532.073.663.218a.947.947 0 01.196.641v.252h-.557v-.255a1.394 1.394 0 00-.016-.25.242.242 0 00-.08-.148.3.3 0 00-.202-.058.319.319 0 00-.212.061.291.291 0 00-.092.164 1.388 1.388 0 00-.022.265v1.301a.72.72 0 00.071.365.27.27 0 00.255.11.283.283 0 00.197-.059.269.269 0 00.083-.158 1.52 1.52 0 00.017-.261v-.264h.557v.241c.016.239-.052.476-.192.674-.128.159-.346.239-.666.239s-.562-.085-.699-.262zM18.404 15.419c-.141-.167-.211-.41-.211-.732v-1.128c0-.319.07-.56.211-.723s.376-.245.705-.244c.327 0 .561.081.702.244s.212.405.212.723v1.128c0 .319-.071.563-.214.731s-.376.252-.699.252-.564-.085-.705-.251zm.964-.271a.69.69 0 00.067-.334v-1.381a.66.66 0 00-.066-.327c-.028-.039-.068-.071-.114-.09s-.097-.026-.147-.019c-.05-.007-.101 0-.147.019s-.086.05-.114.09a.642.642 0 00-.067.327v1.388a.668.668 0 00.067.334.348.348 0 00.26.112.37.37 0 00.143-.029.337.337 0 00.117-.083v-.007zM20.692 12.624h.599l.451 2.081.461-2.081h.583l.059 3.004h-.431l-.046-2.088-.445 2.088h-.346l-.461-2.095-.043 2.095h-.436l.054-3.004zM23.517 12.624h.933c.538 0 .807.284.807.853 0 .545-.283.817-.849.816h-.318v1.335h-.576l.003-3.004zm.797 1.284a.418.418 0 00.316-.094.524.524 0 00.083-.339 1.006 1.006 0 00-.028-.273.228.228 0 00-.115-.142.55.55 0 00-.257-.048h-.224v.898h.224zM26.087 12.624h.619l.635 3.004h-.537l-.126-.693h-.552l-.129.693h-.545l.635-3.004zm.529 1.964l-.215-1.261-.215 1.261h.431zM27.854 12.624h.403l.772 1.714v-1.714h.478v3.004h-.384l-.777-1.789v1.789h-.494l.001-3.004zM30.628 14.483l-.642-1.854h.54l.392 1.191.368-1.191h.529l-.634 1.854v1.145h-.553v-1.145zM16.976 16.942v.157h-.47v1.221h-.197v-1.221h-.472v-.157h1.14zM18.45 18.32h-.152a.066.066 0 01-.043-.013.066.066 0 01-.025-.032l-.136-.327h-.652l-.136.327a.091.091 0 01-.021.037.065.065 0 01-.043.013h-.152l.576-1.378h.201l.583 1.372zm-.954-.512h.544l-.23-.561a1.164 1.164 0 01-.043-.13l-.022.073-.021.058-.228.56zM19.443 18.184a.973.973 0 00.108 0 .708.708 0 00.252-.075v-.31h-.23c-.006 0-.011 0-.017-.002s-.01-.005-.014-.009c-.004-.003-.007-.007-.009-.011s-.003-.009-.003-.014v-.106h.447v.528a.77.77 0 01-.243.112.873.873 0 01-.144.028 1.576 1.576 0 01-.168.009.817.817 0 01-.29-.051.694.694 0 01-.23-.144.672.672 0 01-.202-.504.769.769 0 01.052-.288c.033-.082.084-.156.149-.218s.144-.111.23-.143a.876.876 0 01.309-.051c.054 0 .107.004.16.012a.706.706 0 01.352.162l-.055.085c-.004.008-.011.014-.019.019s-.017.007-.026.007a.066.066 0 01-.036-.011.73.73 0 01-.056-.033.454.454 0 00-.077-.037.76.76 0 00-.106-.031.89.89 0 00-.146-.012.621.621 0 00-.222.038.478.478 0 00-.169.109.488.488 0 00-.107.171.708.708 0 000 .459.497.497 0 00.283.282.586.586 0 00.228.027zM21.28 18.162h.629v.157h-.822v-1.378h.197l-.005 1.221zM22.564 18.319h-.197v-1.378h.197v1.378zM23.297 16.948a.091.091 0 01.03.025l.842 1.039a.4.4 0 010-.049v-1.027h.172v1.383h-.099a.092.092 0 01-.043-.008.113.113 0 01-.031-.026l-.841-1.037v1.072h-.165v-1.378h.103c.011 0 .022.002.032.007zM25.791 16.942v.152h-.698v.455h.566v.146h-.566v.47h.698v.152h-.901v-1.375h.901zM5.143 8.433l8.75 2.352v8.242l-8.75-2.351V8.433zm-.561-.703v9.346l9.871 2.654v-9.345L4.582 7.73z"/><path fill="var(--color3, #afb1b8)" d="M9.872 24.068L0 21.412v-9.345l9.872 2.655v9.346z"/><path fill="var(--color3, #afb1b8)" d="M4.745 8.327l8.636 2.322-3.672 3.478-8.637-2.324 3.674-3.477zm-.163-.597L0 12.067l9.872 2.655 4.581-4.337L4.582 7.73zM10.428 23.543l4.025-3.811-4.025-1.083v4.895z"/></symbol><symbol id="icon-envelope" viewBox="0 0 32 32"><path fill="var(--color5, #757575)" d="M29 4H3C1.346 4 0 5.256 0 6.801v16.803c0 1.544 1.346 2.801 3 2.801h26c1.654 0 3-1.256 3-2.801V6.801C32 5.257 30.654 4 29 4zm0 1.867c.136 0 .265.026.383.072L16 16.767 2.617 5.939c.118-.046.247-.072.383-.072h26zm0 18.67H3c-.552 0-1-.418-1-.934V7.911l13.345 10.796c.188.152.422.228.655.228s.467-.076.655-.228L30 7.911v15.692c0 .515-.448.934-1 .934z"/></symbol><symbol id="icon-smartphone" viewBox="0 0 32 32"><path fill="var(--color5, #757575)" d="M23.467 0H8.534c-1.765 0-3.2 1.34-3.2 2.987v25.889c0 1.647 1.435 2.987 3.2 2.987h14.933c1.765 0 3.2-1.34 3.2-2.987V2.987c0-1.647-1.435-2.987-3.2-2.987zM8.533 1.991h14.933c.589 0 1.067.446 1.067.996v20.91H7.466V2.987c0-.549.478-.996 1.067-.996zm14.934 27.881H8.534c-.589 0-1.067-.446-1.067-.996v-2.987h17.067v2.987c0 .55-.478.996-1.067.996z"/><path fill="var(--color5, #757575)" d="M10.354 27.176c.417.389.417 1.02 0 1.409s-1.092.389-1.508 0c-.417-.389-.417-1.02 0-1.409s1.092-.389 1.508 0z"/></symbol><symbol id="icon-Ellipse" viewBox="0 0 32 32"><path fill="var(--color3, #afb1b8)" d="M23.258 13.004c-.034-.773-.159-1.304-.338-1.765a3.557 3.557 0 00-.841-1.29 3.589 3.589 0 00-1.287-.838c-.463-.179-.992-.304-1.764-.338-.779-.037-1.026-.046-3.001-.046s-2.222.009-2.998.043c-.773.034-1.304.159-1.764.338a3.557 3.557 0 00-1.29.841 3.589 3.589 0 00-.838 1.287c-.179.463-.304.992-.338 1.764-.037.779-.045 1.026-.045 3.001s.008 2.222.043 2.998c.034.773.159 1.304.338 1.765.185.489.472.926.841 1.29.364.369.804.656 1.287.838.463.179.992.304 1.765.338.776.034 1.023.043 2.998.043s2.222-.008 2.998-.043c.773-.034 1.304-.159 1.764-.338a3.72 3.72 0 002.128-2.128c.179-.463.304-.992.338-1.765.034-.776.043-1.023.043-2.998s-.003-2.222-.037-2.998zm-1.309 5.938c-.031.71-.151 1.094-.25 1.35a2.409 2.409 0 01-1.381 1.381c-.256.099-.642.219-1.35.25-.767.034-.997.043-2.938.043s-2.174-.008-2.938-.043c-.71-.031-1.094-.15-1.35-.25a2.228 2.228 0 01-.835-.543 2.264 2.264 0 01-.543-.835c-.099-.256-.219-.642-.25-1.35-.034-.767-.043-.997-.043-2.938s.008-2.174.043-2.938c.031-.71.151-1.094.25-1.35.117-.315.301-.602.546-.835.236-.242.52-.426.835-.543.256-.099.642-.219 1.35-.25.767-.034.997-.043 2.938-.043 1.944 0 2.174.008 2.938.043.71.031 1.094.151 1.35.25.315.116.602.301.835.543.241.236.426.52.543.835.099.256.219.642.25 1.35.034.767.043.997.043 2.938s-.009 2.168-.043 2.935z"/><path fill="var(--color3, #afb1b8)" d="M16.027 12.265a3.737 3.737 0 10.003 7.475 3.737 3.737 0 00-.003-7.475zm0 6.16a2.424 2.424 0 110-4.849 2.424 2.424 0 010 4.849zM20.784 12.117a.872.872 0 11-1.744 0 .872.872 0 011.744 0z"/></symbol><symbol id="icon-Ellipse1" viewBox="0 0 32 32"><path fill="var(--color3, #afb1b8)" d="M23.273 11.49a6.248 6.248 0 01-1.718.471 2.967 2.967 0 001.312-1.648 5.963 5.963 0 01-1.891.722 2.981 2.981 0 00-5.158 2.039c0 .236.02.464.069.68a8.439 8.439 0 01-6.146-3.119 2.985 2.985 0 00.917 3.985 2.943 2.943 0 01-1.347-.367v.033a2.996 2.996 0 002.389 2.93 2.992 2.992 0 01-.782.098 2.64 2.64 0 01-.565-.051 3.01 3.01 0 002.786 2.077 5.991 5.991 0 01-3.697 1.272 5.59 5.59 0 01-.714-.041 8.393 8.393 0 004.575 1.338c5.487 0 8.487-4.545 8.487-8.485 0-.132-.005-.259-.011-.385a5.95 5.95 0 001.495-1.548z"/></symbol><symbol id="icon-Ellipse2" viewBox="0 0 32 32"><path fill="var(--color3, #afb1b8)" d="M18.422 11.142h1.328V8.829a17.317 17.317 0 00-1.935-.102c-1.915 0-3.226 1.204-3.226 3.418v2.037h-2.113v2.585h2.113v6.505h2.59v-6.505h2.027l.322-2.585h-2.35v-1.781c.001-.747.202-1.259 1.243-1.259z"/></symbol><symbol id="icon-Ellipse3" viewBox="0 0 32 32"><path fill="var(--color3, #afb1b8)" d="M23.269 23.273v-.001h.004v-5.335c0-2.61-.562-4.62-3.613-4.62-1.467 0-2.451.805-2.853 1.568h-.042v-1.324h-2.893v9.711h3.012v-4.809c0-1.266.24-2.49 1.808-2.49 1.545 0 1.568 1.445 1.568 2.572v4.728h3.009zM8.967 13.562h3.016v9.711H8.967v-9.711zM10.474 8.727c-.964 0-1.747.782-1.747 1.747s.782 1.763 1.747 1.763c.964 0 1.747-.799 1.747-1.763s-.783-1.747-1.747-1.747z"/></symbol><symbol id="icon-facebook-1" viewBox="0 0 32 32"><path fill="var(--color4, #fff)" d="M21.329 5.313h2.921V.225C23.746.156 22.013 0 19.994 0c-4.212 0-7.097 2.649-7.097 7.519V12H8.249v5.688h4.648V32h5.699V17.689h4.46l.708-5.688h-5.169V8.082c.001-1.644.444-2.769 2.735-2.769z"/></symbol><symbol id="icon-instagram-2" viewBox="0 0 32 32"><path fill="var(--color4, #fff)" d="M31.969 9.408c-.075-1.7-.35-2.869-.744-3.882a7.806 7.806 0 00-1.851-2.838A7.867 7.867 0 0026.542.844C25.523.45 24.36.175 22.66.1 20.947.019 20.403 0 16.059 0s-4.888.019-6.595.094c-1.7.075-2.869.35-3.882.744a7.803 7.803 0 00-2.838 1.85A7.867 7.867 0 00.9 5.52C.506 6.539.231 7.702.156 9.402c-.081 1.713-.1 2.257-.1 6.601s.019 4.888.094 6.595c.075 1.7.35 2.869.744 3.882a7.895 7.895 0 001.85 2.838 7.867 7.867 0 002.832 1.844c1.019.394 2.182.669 3.882.744 1.706.075 2.25.094 6.595.094s4.888-.019 6.595-.094c1.7-.075 2.869-.35 3.882-.744a8.184 8.184 0 004.682-4.682c.394-1.019.669-2.182.744-3.882.075-1.707.094-2.251.094-6.595s-.006-4.888-.081-6.595zm-2.882 13.065c-.069 1.563-.331 2.407-.55 2.969a5.31 5.31 0 01-3.038 3.038c-.563.219-1.413.481-2.969.55-1.688.075-2.194.094-6.464.094s-4.782-.019-6.464-.094c-1.563-.069-2.407-.331-2.969-.55a4.926 4.926 0 01-1.838-1.194 4.974 4.974 0 01-1.194-1.838c-.219-.563-.481-1.413-.55-2.969-.075-1.688-.094-2.194-.094-6.464s.019-4.782.094-6.464c.069-1.563.331-2.407.55-2.969a4.868 4.868 0 011.2-1.838A4.974 4.974 0 016.639 3.55c.563-.219 1.413-.481 2.969-.55 1.688-.075 2.194-.094 6.464-.094 4.276 0 4.782.019 6.464.094 1.563.069 2.407.331 2.969.55a4.914 4.914 0 011.838 1.194 4.974 4.974 0 011.194 1.838c.219.563.481 1.413.55 2.969.075 1.688.094 2.194.094 6.464s-.019 4.77-.094 6.458z"/><path fill="var(--color4, #fff)" d="M16.059 7.783c-4.538 0-8.22 3.682-8.22 8.22s3.682 8.22 8.22 8.22c4.539 0 8.22-3.682 8.22-8.22s-3.682-8.22-8.22-8.22zm0 13.552a5.333 5.333 0 010-10.664 5.333 5.333 0 010 10.664zM26.524 7.458a1.919 1.919 0 11-3.838 0 1.919 1.919 0 013.838 0z"/></symbol><symbol id="icon-linkedin-1" viewBox="0 0 32 32"><path fill="var(--color4, #fff)" d="M31.992 32v-.001H32V20.263c0-5.741-1.236-10.164-7.948-10.164-3.227 0-5.392 1.771-6.276 3.449h-.093v-2.913h-6.364v21.364h6.627V21.42c0-2.785.528-5.479 3.977-5.479 3.399 0 3.449 3.179 3.449 5.657v10.401h6.62zM.528 10.636h6.635V32H.528V10.636zM3.843 0C1.722 0 0 1.721 0 3.843s1.721 3.879 3.843 3.879c2.121 0 3.843-1.757 3.843-3.879A3.846 3.846 0 003.843 0z"/></symbol><symbol id="icon-twitter-1" viewBox="0 0 32 32"><path fill="var(--color4, #fff)" d="M32 6.078c-1.19.522-2.458.868-3.78 1.036a6.523 6.523 0 002.886-3.626 13.11 13.11 0 01-4.16 1.588A6.574 6.574 0 0022.154 3c-3.632 0-6.556 2.948-6.556 6.562 0 .52.044 1.02.152 1.496-5.454-.266-10.28-2.88-13.522-6.862a6.605 6.605 0 00-.898 3.316 6.57 6.57 0 002.914 5.452 6.479 6.479 0 01-2.964-.808v.072c0 3.188 2.274 5.836 5.256 6.446a6.548 6.548 0 01-1.72.216 5.8 5.8 0 01-1.242-.112c.85 2.598 3.262 4.508 6.13 4.57a13.182 13.182 0 01-8.134 2.798c-.538 0-1.054-.024-1.57-.09A18.469 18.469 0 0010.064 29c12.072 0 18.672-10 18.672-18.668 0-.29-.01-.57-.024-.848A13.087 13.087 0 0032 6.078z"/></symbol><symbol id="icon-icon-send" viewBox="0 0 32 32"><path fill="var(--color4, #fff)" d="M32 0L0 18l10.227 3.788L26 7 14.002 23.186l.01.004-.012-.004V32l5.735-6.691L27 28l5-28z"/></symbol></defs></svg>